<svg width="48" height="48" viewBox="0 0 48 48" fill="none" xmlns="http://www.w3.org/2000/svg">
<g clip-path="url(#clip0_626_18)">
<circle cx="24" cy="24" r="18" fill="white"/>
<path d="M24 0C10.7464 0 0 10.7464 0 24C0 37.2536 10.7464 48 24 48C37.2536 48 48 37.2536 48 24C48 10.7464 37.2536 0 24 0ZM36.1607 20.6411C36.1071 20.8661 35.9732 21.1982 35.7857 21.5946H35.7911L35.7696 21.6321C34.6821 23.9411 31.8536 28.4732 31.8536 28.4732C31.8536 28.4732 31.8482 28.4625 31.8375 28.4464L31.0071 29.8821H34.9982L27.3804 39.9643L29.1107 33.1071H25.9714L27.0643 28.5696C26.1804 28.7786 25.1411 29.0732 23.9036 29.4696C23.9036 29.4696 22.2321 30.4446 19.0875 27.5946C19.0875 27.5946 16.9661 25.7357 18.1982 25.2696C18.7232 25.0714 20.7375 24.8196 22.3232 24.6107C24.4661 24.3214 25.7839 24.1714 25.7839 24.1714C25.7839 24.1714 19.1786 24.2679 17.6089 24.0268C16.0393 23.7804 14.0518 21.1821 13.6286 18.8946C13.6286 18.8946 12.975 17.6411 15.0375 18.2357C17.1 18.8304 25.6393 20.55 25.6393 20.55C25.6393 20.55 14.5286 17.1589 13.7893 16.3339C13.05 15.5089 11.6143 11.8232 11.8018 9.55714C11.8018 9.55714 11.8821 8.99464 12.4661 9.14464C12.4661 9.14464 20.6786 12.8786 26.2929 14.925C31.9071 16.9554 36.7875 17.9946 36.1607 20.6411Z" fill="#2691E5"/>
</g>
<defs>
<clipPath id="clip0_626_18">
<rect width="48" height="48" fill="white"/>
</clipPath>
</defs>
</svg>
